<svg xmlns="http://www.w3.org/2000/svg" xmlns:xlink="http://www.w3.org/1999/xlink" width="500" zoomAndPan="magnify" viewBox="0 0 375 374.999991" height="500" preserveAspectRatio="xMidYMid meet" version="1.0"><rect x="-37.5" width="450" fill="#ffffff" y="-37.499999" height="449.999989" fill-opacity="1"/><rect x="-37.5" width="450" fill="#000000" y="-37.499999" height="449.999989" fill-opacity="1"/><path fill="#ffffff" d="M 186.148438 12.355469 C 87.75 12.355469 7.957031 92.128906 7.957031 190.546875 C 7.957031 269.277344 59.015625 336.070312 129.816406 359.632812 C 138.71875 361.285156 141.984375 355.769531 141.984375 351.0625 C 141.984375 346.8125 141.820312 332.777344 141.746094 317.886719 C 92.171875 328.664062 81.710938 296.863281 81.710938 296.863281 C 73.605469 276.265625 61.925781 270.789062 61.925781 270.789062 C 45.757812 259.730469 63.144531 259.960938 63.144531 259.960938 C 81.035156 261.214844 90.460938 278.324219 90.460938 278.324219 C 106.351562 305.558594 132.144531 297.683594 142.3125 293.136719 C 143.914062 281.617188 148.53125 273.753906 153.628906 269.304688 C 114.046875 264.804688 72.441406 249.523438 72.441406 181.246094 C 72.441406 161.792969 79.402344 145.894531 90.800781 133.414062 C 88.949219 128.929688 82.851562 110.804688 92.527344 86.261719 C 92.527344 86.261719 107.484375 81.472656 141.539062 104.527344 C 155.753906 100.574219 171 98.589844 186.148438 98.523438 C 201.285156 98.589844 216.539062 100.570312 230.78125 104.519531 C 264.792969 81.464844 279.734375 86.253906 279.734375 86.253906 C 289.433594 110.796875 283.335938 128.921875 281.484375 133.410156 C 292.910156 145.890625 299.824219 161.785156 299.824219 181.238281 C 299.824219 249.679688 258.140625 264.746094 218.460938 269.160156 C 224.855469 274.691406 230.550781 285.535156 230.550781 302.160156 C 230.550781 326 230.34375 345.1875 230.34375 351.058594 C 230.34375 355.800781 233.554688 361.355469 242.582031 359.605469 C 313.34375 336.019531 364.339844 269.25 364.339844 190.546875 C 364.335938 92.136719 284.554688 12.359375 186.148438 12.359375 Z M 186.148438 12.355469 " fill-opacity="1" fill-rule="evenodd"/><path fill="#ffffff" d="M 75.445312 268.195312 C 75.054688 269.082031 73.660156 269.347656 72.394531 268.742188 C 71.09375 268.164062 70.371094 266.957031 70.789062 266.066406 C 71.175781 265.152344 72.570312 264.902344 73.859375 265.511719 C 75.15625 266.09375 75.894531 267.3125 75.445312 268.199219 Z M 82.664062 276.25 C 81.816406 277.035156 80.15625 276.671875 79.027344 275.421875 C 77.859375 274.183594 77.640625 272.519531 78.507812 271.722656 C 79.386719 270.9375 80.996094 271.308594 82.164062 272.546875 C 83.328125 273.804688 83.558594 275.453125 82.667969 276.25 Z M 89.691406 286.507812 C 88.601562 287.269531 86.8125 286.558594 85.710938 284.972656 C 84.617188 283.386719 84.617188 281.484375 85.738281 280.722656 C 86.839844 279.964844 88.601562 280.652344 89.722656 282.21875 C 90.808594 283.828125 90.808594 285.730469 89.691406 286.503906 Z M 99.316406 296.425781 C 98.34375 297.503906 96.257812 297.214844 94.734375 295.746094 C 93.179688 294.308594 92.746094 292.265625 93.722656 291.191406 C 94.714844 290.109375 96.808594 290.410156 98.339844 291.871094 C 99.894531 293.304688 100.363281 295.351562 99.320312 296.421875 Z M 112.59375 302.183594 C 112.160156 303.578125 110.160156 304.210938 108.136719 303.617188 C 106.121094 303.003906 104.804688 301.375 105.21875 299.964844 C 105.628906 298.554688 107.644531 297.898438 109.679688 298.53125 C 111.695312 299.140625 113.011719 300.761719 112.59375 302.183594 Z M 127.179688 303.246094 C 127.230469 304.71875 125.519531 305.933594 123.402344 305.960938 C 121.269531 306.011719 119.542969 304.820312 119.523438 303.375 C 119.523438 301.890625 121.199219 300.6875 123.328125 300.648438 C 125.445312 300.609375 127.183594 301.789062 127.183594 303.246094 Z M 140.746094 300.941406 C 141 302.371094 139.527344 303.84375 137.425781 304.234375 C 135.359375 304.621094 133.441406 303.726562 133.175781 302.308594 C 132.921875 300.839844 134.421875 299.367188 136.484375 298.988281 C 138.59375 298.625 140.480469 299.488281 140.746094 300.941406 Z M 140.746094 300.941406 " fill-opacity="1" fill-rule="nonzero"/></svg>