<svg xmlns="http://www.w3.org/2000/svg" xmlns:xlink="http://www.w3.org/1999/xlink" width="500" zoomAndPan="magnify" viewBox="0 0 375 374.999991" height="500" preserveAspectRatio="xMidYMid meet" version="1.0"><rect x="-37.5" width="450" fill="#ffffff" y="-37.499999" height="449.999989" fill-opacity="1"/><rect x="-37.5" width="450" fill="#ffffff" y="-37.499999" height="449.999989" fill-opacity="1"/><rect x="-37.5" width="450" fill="#000000" y="-37.499999" height="449.999989" fill-opacity="1"/><path fill="#ffffff" d="M 100.605469 364.277344 L 11.71875 10.78125 L 363.28125 109.511719 " fill-opacity="1" fill-rule="nonzero"/><path stroke-linecap="butt" transform="matrix(0.585937, 0, 0, 0.585937, 0.0000045, 0.000000000000234479)" fill-opacity="1" fill="#ffffff" fill-rule="nonzero" stroke-linejoin="miter" d="M 245.800003 362.400016 L 283.700005 513.300023 " stroke="#000000" stroke-width="7" stroke-opacity="1" stroke-miterlimit="10"/><path stroke-linecap="butt" transform="matrix(0.585937, 0, 0, 0.585937, 0.0000045, 0.000000000000234479)" fill-opacity="1" fill="#ffffff" fill-rule="nonzero" stroke-linejoin="miter" d="M 395.50001 404.800018 L 245.800003 362.400016 " stroke="#000000" stroke-width="7" stroke-opacity="1" stroke-miterlimit="10"/><path stroke-linecap="butt" transform="matrix(0.585937, 0, 0, 0.585937, 0.0000045, 0.000000000000234479)" fill-opacity="1" fill="#ffffff" fill-rule="nonzero" stroke-linejoin="miter" d="M 283.700005 513.300023 L 395.50001 404.800018 " stroke="#000000" stroke-width="7" stroke-opacity="1" stroke-miterlimit="10"/><path stroke-linecap="butt" transform="matrix(0.585937, 0, 0, 0.585937, 0.0000045, 0.000000000000234479)" fill-opacity="1" fill="#ffffff" fill-rule="nonzero" stroke-linejoin="miter" d="M 283.700005 513.300023 L 133.999998 470.900021 " stroke="#000000" stroke-width="7" stroke-opacity="1" stroke-miterlimit="10"/><path stroke-linecap="butt" transform="matrix(0.585937, 0, 0, 0.585937, 0.0000045, 0.000000000000234479)" fill="none" stroke-linejoin="miter" d="M 133.999998 470.900021 L 171.9 621.900028 L 283.700005 513.300023 " stroke="#000000" stroke-width="7" stroke-opacity="1" stroke-miterlimit="10"/><path stroke-linecap="butt" transform="matrix(0.585937, 0, 0, 0.585937, 0.0000045, 0.000000000000234479)" fill-opacity="1" fill="#ffffff" fill-rule="nonzero" stroke-linejoin="miter" d="M 133.999998 470.900021 L 245.800003 362.400016 " stroke="#000000" stroke-width="7" stroke-opacity="1" stroke-miterlimit="10"/><path stroke-linecap="butt" transform="matrix(0.585937, 0, 0, 0.585937, 0.0000045, 0.000000000000234479)" fill-opacity="1" fill="#ffffff" fill-rule="nonzero" stroke-linejoin="miter" d="M 245.800003 362.400016 L 357.700008 253.800011 " stroke="#000000" stroke-width="7" stroke-opacity="1" stroke-miterlimit="10"/><path stroke-linecap="butt" transform="matrix(0.585937, 0, 0, 0.585937, 0.0000045, 0.000000000000234479)" fill-opacity="1" fill="#ffffff" fill-rule="nonzero" stroke-linejoin="miter" d="M 357.700008 253.800011 L 469.500014 145.300007 " stroke="#000000" stroke-width="7" stroke-opacity="1" stroke-miterlimit="10"/><path stroke-linecap="butt" transform="matrix(0.585937, 0, 0, 0.585937, 0.0000045, 0.000000000000234479)" fill-opacity="1" fill="#ffffff" fill-rule="nonzero" stroke-linejoin="miter" d="M 319.800007 102.900005 L 357.700008 253.800011 " stroke="#000000" stroke-width="7" stroke-opacity="1" stroke-miterlimit="10"/><path stroke-linecap="butt" transform="matrix(0.585937, 0, 0, 0.585937, 0.0000045, 0.000000000000234479)" fill-opacity="1" fill="#ffffff" fill-rule="nonzero" stroke-linejoin="miter" d="M 357.700008 253.800011 L 207.900002 211.50001 " stroke="#000000" stroke-width="7" stroke-opacity="1" stroke-miterlimit="10"/><path stroke-linecap="butt" transform="matrix(0.585937, 0, 0, 0.585937, 0.0000045, 0.000000000000234479)" fill-opacity="1" fill="#ffffff" fill-rule="nonzero" stroke-linejoin="miter" d="M 207.900002 211.50001 L 245.800003 362.400016 " stroke="#000000" stroke-width="7" stroke-opacity="1" stroke-miterlimit="10"/><path stroke-linecap="butt" transform="matrix(0.585937, 0, 0, 0.585937, 0.0000045, 0.000000000000234479)" fill-opacity="1" fill="#ffffff" fill-rule="nonzero" stroke-linejoin="miter" d="M 245.800003 362.400016 L 96.099997 320.000014 " stroke="#000000" stroke-width="7" stroke-opacity="1" stroke-miterlimit="10"/><path stroke-linecap="butt" transform="matrix(0.585937, 0, 0, 0.585937, 0.0000045, 0.000000000000234479)" fill-opacity="1" fill="#ffffff" fill-rule="nonzero" stroke-linejoin="miter" d="M 96.099997 320.000014 L 133.999998 470.900021 " stroke="#000000" stroke-width="7" stroke-opacity="1" stroke-miterlimit="10"/><path stroke-linecap="butt" transform="matrix(0.585937, 0, 0, 0.585937, 0.0000045, 0.000000000000234479)" fill-opacity="1" fill="#ffffff" fill-rule="nonzero" stroke-linejoin="miter" d="M 58.199995 169.100008 L 96.099997 320.000014 " stroke="#000000" stroke-width="7" stroke-opacity="1" stroke-miterlimit="10"/><path stroke-linecap="butt" transform="matrix(0.585937, 0, 0, 0.585937, 0.0000045, 0.000000000000234479)" fill-opacity="1" fill="#ffffff" fill-rule="nonzero" stroke-linejoin="miter" d="M 207.900002 211.50001 L 58.199995 169.100008 " stroke="#000000" stroke-width="7" stroke-opacity="1" stroke-miterlimit="10"/><path stroke-linecap="butt" transform="matrix(0.585937, 0, 0, 0.585937, 0.0000045, 0.000000000000234479)" fill-opacity="1" fill="#ffffff" fill-rule="nonzero" stroke-linejoin="miter" d="M 96.099997 320.000014 L 207.900002 211.50001 " stroke="#000000" stroke-width="7" stroke-opacity="1" stroke-miterlimit="10"/><path stroke-linecap="butt" transform="matrix(0.585937, 0, 0, 0.585937, 0.0000045, 0.000000000000234479)" fill-opacity="1" fill="#ffffff" fill-rule="nonzero" stroke-linejoin="miter" d="M 207.900002 211.40001 L 319.800007 102.900005 " stroke="#000000" stroke-width="7" stroke-opacity="1" stroke-miterlimit="10"/><path stroke-linecap="butt" transform="matrix(0.585937, 0, 0, 0.585937, 0.0000045, 0.000000000000234479)" fill-opacity="1" fill="#ffffff" fill-rule="nonzero" stroke-linejoin="miter" d="M 319.800007 102.900005 L 170 60.500003 " stroke="#000000" stroke-width="7" stroke-opacity="1" stroke-miterlimit="10"/><path stroke-linecap="butt" transform="matrix(0.585937, 0, 0, 0.585937, 0.0000045, 0.000000000000234479)" fill-opacity="1" fill="#ffffff" fill-rule="nonzero" stroke-linejoin="miter" d="M 170 60.500003 L 207.900002 211.40001 " stroke="#000000" stroke-width="7" stroke-opacity="1" stroke-miterlimit="10"/><path stroke-linecap="butt" transform="matrix(0.585937, 0, 0, 0.585937, 0.0000045, 0.000000000000234479)" fill="none" stroke-linejoin="miter" d="M 58.199995 169.100008 L 20.299993 18.100001 L 170 60.500003 " stroke="#000000" stroke-width="7" stroke-opacity="1" stroke-miterlimit="10"/><path stroke-linecap="butt" transform="matrix(0.585937, 0, 0, 0.585937, 0.0000045, 0.000000000000234479)" fill-opacity="1" fill="#ffffff" fill-rule="nonzero" stroke-linejoin="miter" d="M 58.199995 169.100008 L 170 60.500003 " stroke="#000000" stroke-width="7" stroke-opacity="1" stroke-miterlimit="10"/><path stroke-linecap="butt" transform="matrix(0.585937, 0, 0, 0.585937, 0.0000045, 0.000000000000234479)" fill="none" stroke-linejoin="miter" d="M 507.400015 296.200013 L 619.20002 187.700008 L 469.500014 145.300007 " stroke="#000000" stroke-width="7" stroke-opacity="1" stroke-miterlimit="10"/><path stroke-linecap="butt" transform="matrix(0.585937, 0, 0, 0.585937, 0.0000045, 0.000000000000234479)" fill-opacity="1" fill="#ffffff" fill-rule="nonzero" stroke-linejoin="miter" d="M 469.500014 145.300007 L 507.400015 296.200013 " stroke="#000000" stroke-width="7" stroke-opacity="1" stroke-miterlimit="10"/><path stroke-linecap="butt" transform="matrix(0.585937, 0, 0, 0.585937, 0.0000045, 0.000000000000234479)" fill-opacity="1" fill="#ffffff" fill-rule="nonzero" stroke-linejoin="miter" d="M 507.400015 296.200013 L 357.700008 253.800011 " stroke="#000000" stroke-width="7" stroke-opacity="1" stroke-miterlimit="10"/><path stroke-linecap="butt" transform="matrix(0.585937, 0, 0, 0.585937, 0.0000045, 0.000000000000234479)" fill-opacity="1" fill="#ffffff" fill-rule="nonzero" stroke-linejoin="miter" d="M 357.700008 253.800011 L 395.50001 404.800018 " stroke="#000000" stroke-width="7" stroke-opacity="1" stroke-miterlimit="10"/><path stroke-linecap="butt" transform="matrix(0.585937, 0, 0, 0.585937, 0.0000045, 0.000000000000234479)" fill-opacity="1" fill="#ffffff" fill-rule="nonzero" stroke-linejoin="miter" d="M 395.50001 404.800018 L 507.400015 296.200013 " stroke="#000000" stroke-width="7" stroke-opacity="1" stroke-miterlimit="10"/><path stroke-linecap="butt" transform="matrix(0.585937, 0, 0, 0.585937, 0.0000045, 0.000000000000234479)" fill-opacity="1" fill="#ffffff" fill-rule="nonzero" stroke-linejoin="miter" d="M 469.500014 145.300007 L 319.800007 102.900005 " stroke="#000000" stroke-width="7" stroke-opacity="1" stroke-miterlimit="10"/></svg>